<?xml version="1.0" encoding="UTF-8"?>
<svg xmlns="http://www.w3.org/2000/svg" width="128" height="40" viewBox="0 0 128 40" fill="none">
  <g transform="scale(0.0766283524904215)">
    <mask id="mask_nav_a" style="mask-type:alpha" maskUnits="userSpaceOnUse" x="0" y="0" width="522" height="522">
      <circle cx="261" cy="261" r="261" fill="#D9D9D9"></circle>
  </mask>
  <g mask="url(#mask_nav_a)">
    <mask id="mask_nav_b" style="mask-type:alpha" maskUnits="userSpaceOnUse" x="0" y="0" width="522" height="522">
      <circle cx="261" cy="261" r="261" fill="#D9D9D9"></circle>
    </mask>
    <g mask="url(#mask_nav_b)">
      <path d="M126.426 130.5H261.004V261H126.426V130.5Z" fill="#4B7ABD" stroke="white" stroke-width="8"></path>
      <rect x="395.58" y="259" width="130.5" height="130.5" fill="#599609" stroke="white" stroke-width="8"></rect>
      <path d="M261.504 -9.01758H527.515V261.5H394L261.504 135V-9.01758Z" fill="#599609" stroke="white" stroke-width="8"></path>
      <path d="M126.426 261H395.582V395.578V530.156H261.004V395.578H126.426V261Z" fill="#72AE23" stroke="white" stroke-width="8"></path>
      <path d="M261.008 130.5L395.586 261H261.008V130.5Z" fill="#5EA4E4" stroke="white" stroke-width="8" stroke-linejoin="bevel"></path>
      <path d="M306.59 532.023L-4.50842 523.288V392.255L306.59 392.255V532.023Z" fill="#4C7E0B" stroke="white" stroke-width="8"></path>
      <path d="M126.426 391.499L-8.15233 391.499V260.999H126.426V391.499Z" fill="#72AE23" stroke="white" stroke-width="6"></path>
      <path d="M395.58 530.155L526.08 391.499H395.58V530.155Z" fill="#599609" stroke="white" stroke-width="6"></path>
      <path d="M-6.11523 261L-6.11525 -8.15622L126.424 -8.15622L261.002 -8.15623L261.002 134.578L128.463 134.578L126.424 261L-6.11523 261Z" fill="#72AE23" stroke="white" stroke-width="8"></path>
      <path d="M261 -1.14087e-05C405.146 -1.77095e-05 522 116.854 522 261C522 405.146 405.146 522 261 522C116.854 522 -5.10784e-06 405.146 -1.14087e-05 261C-1.77095e-05 116.854 116.854 -5.10784e-06 261 -1.14087e-05ZM261 476.73C380.144 476.73 476.73 380.144 476.73 261C476.73 141.855 380.144 45.2698 261 45.2698C141.855 45.2698 45.2698 141.856 45.2698 261C45.2698 380.144 141.856 476.73 261 476.73Z" fill="#1B5471"></path>
      <g style="mix-blend-mode:overlay">
        <circle cx="511" cy="466" r="323" fill="white" fill-opacity="0.4"></circle>
      </g>
    </g>
  </g>
  </g>
  <g transform="translate(44, 8) scale(0.165) translate(-384, -330)">
    <path d="M416.106 471L384.664 377.032H410.954L430.139 440.98L426.231 440.447L447.369 390.532H462.29L484.317 440.625L480.053 440.98L499.238 377.032H525.527L493.553 471H475.257L453.053 417.532L455.895 417.888L434.224 471H416.106ZM535.518 471V339.552H560.386V396.217L555.413 398.348C556.715 394.085 559.025 390.236 562.34 386.802C565.775 383.249 569.86 380.407 574.597 378.276C579.334 376.144 584.308 375.078 589.518 375.078C596.624 375.078 602.545 376.499 607.282 379.341C612.137 382.184 615.749 386.506 618.117 392.309C620.604 397.993 621.848 405.039 621.848 413.447V471H596.624V415.401C596.624 411.138 596.032 407.585 594.847 404.743C593.663 401.901 591.828 399.828 589.341 398.526C586.972 397.105 584.012 396.513 580.459 396.749C577.617 396.749 574.952 397.223 572.466 398.17C570.097 398.999 568.025 400.243 566.248 401.901C564.59 403.559 563.229 405.453 562.163 407.585C561.215 409.717 560.742 412.026 560.742 414.513V471H548.307C545.584 471 543.156 471 541.025 471C538.893 471 537.057 471 535.518 471ZM642.821 471V377.032H668.045V471H642.821ZM655.255 357.67C650.4 357.67 646.61 356.486 643.886 354.118C641.163 351.749 639.801 348.374 639.801 343.992C639.801 339.966 641.163 336.709 643.886 334.223C646.729 331.617 650.518 330.315 655.255 330.315C660.11 330.315 663.9 331.558 666.623 334.045C669.347 336.413 670.709 339.729 670.709 343.992C670.709 348.137 669.288 351.453 666.446 353.94C663.722 356.427 659.992 357.67 655.255 357.67ZM715.946 472.776C707.183 472.776 699.367 471.355 692.498 468.513C685.748 465.553 680.301 461.526 676.156 456.434L691.788 442.934C695.459 446.842 699.544 449.684 704.044 451.46C708.544 453.118 713.044 453.947 717.544 453.947C719.321 453.947 720.92 453.77 722.341 453.414C723.88 452.941 725.183 452.349 726.248 451.638C727.314 450.809 728.084 449.862 728.558 448.796C729.15 447.612 729.446 446.368 729.446 445.066C729.446 442.46 728.38 440.388 726.248 438.848C725.064 438.256 723.229 437.546 720.742 436.717C718.255 435.769 715.058 434.763 711.15 433.697C705.11 432.158 699.959 430.381 695.696 428.368C691.551 426.236 688.235 423.868 685.748 421.263C683.617 418.776 681.959 416.111 680.774 413.269C679.709 410.309 679.176 407.052 679.176 403.499C679.176 399.236 680.123 395.388 682.018 391.953C683.913 388.401 686.518 385.381 689.834 382.894C693.268 380.407 697.176 378.512 701.558 377.21C705.939 375.789 710.558 375.078 715.413 375.078C720.268 375.078 725.005 375.67 729.624 376.855C734.242 378.039 738.505 379.756 742.413 382.006C746.439 384.137 749.933 386.684 752.893 389.644L739.393 404.565C737.262 402.552 734.834 400.717 732.11 399.059C729.505 397.401 726.781 396.098 723.939 395.151C721.097 394.203 718.551 393.73 716.301 393.73C714.288 393.73 712.452 393.907 710.794 394.263C709.255 394.618 707.952 395.151 706.887 395.861C705.821 396.572 704.992 397.519 704.4 398.703C703.926 399.769 703.689 400.953 703.689 402.256C703.689 403.559 703.985 404.802 704.577 405.986C705.288 407.171 706.235 408.177 707.419 409.006C708.722 409.717 710.617 410.546 713.104 411.493C715.709 412.44 719.202 413.506 723.584 414.69C729.268 416.23 734.064 417.947 737.972 419.842C741.999 421.736 745.196 423.927 747.564 426.414C749.578 428.546 751.058 430.973 752.005 433.697C752.953 436.421 753.426 439.441 753.426 442.756C753.426 448.559 751.768 453.77 748.453 458.388C745.255 462.888 740.814 466.441 735.13 469.046C729.446 471.533 723.051 472.776 715.946 472.776ZM760.751 510.079V377.032H785.087L785.797 398.17L781.179 396.572C782.008 392.782 784.021 389.289 787.218 386.091C790.534 382.894 794.62 380.289 799.475 378.276C804.33 376.262 809.422 375.256 814.751 375.256C822.922 375.256 830.146 377.387 836.423 381.651C842.817 385.795 847.85 391.539 851.521 398.881C855.311 406.105 857.206 414.454 857.206 423.927C857.206 433.283 855.37 441.631 851.699 448.974C848.028 456.316 842.995 462.118 836.6 466.382C830.205 470.526 822.922 472.599 814.751 472.599C809.304 472.599 804.093 471.592 799.12 469.579C794.264 467.447 790.12 464.664 786.685 461.23C783.251 457.796 781.119 454.125 780.291 450.217L786.152 447.73V510.079H760.751ZM809.067 450.927C813.686 450.927 817.771 449.802 821.324 447.552C824.876 445.302 827.659 442.164 829.673 438.138C831.686 433.993 832.692 429.256 832.692 423.927C832.692 418.598 831.686 413.921 829.673 409.894C827.659 405.868 824.876 402.73 821.324 400.48C817.89 398.23 813.804 397.105 809.067 397.105C804.33 397.105 800.185 398.23 796.633 400.48C793.08 402.611 790.297 405.749 788.284 409.894C786.271 413.921 785.264 418.598 785.264 423.927C785.264 429.256 786.271 433.993 788.284 438.138C790.297 442.164 793.08 445.302 796.633 447.552C800.185 449.802 804.33 450.927 809.067 450.927Z" fill="#e8eaeb"></path>
  </g>
</svg>