<?xml version="1.0" encoding="UTF-8"?>
<svg xmlns="http://www.w3.org/2000/svg" width="864" height="579" viewBox="0 0 864 579" fill="none">
  <mask id="mask0_2990_8371" style="mask-type:alpha" maskUnits="userSpaceOnUse" x="0" y="0" width="522" height="522">
    <path d="M261 0C405.146 6.031e-06 522 116.854 522 261C522 293.26 516.146 324.153 505.444 352.675C487.483 330.314 459.913 316 429 316C374.876 316 331 359.876 331 414C331 448.191 348.51 478.292 375.052 495.826C340.595 512.593 301.896 522 261 522C116.854 522 6.30084e-06 405.146 0 261C-6.30084e-06 116.854 116.854 6.30084e-06 261 0Z" fill="#DB2626"></path>
  </mask>
  <g mask="url(#mask0_2990_8371)">
    <mask id="mask1_2990_8371" style="mask-type:alpha" maskUnits="userSpaceOnUse" x="0" y="0" width="522" height="522">
      <circle cx="261" cy="261" r="261" fill="#D9D9D9"></circle>
    </mask>
    <g mask="url(#mask1_2990_8371)">
      <path d="M126.426 130.5H261.004V261H126.426V130.5Z" fill="#4B7ABD" stroke="white" stroke-width="8"></path>
      <rect x="395.58" y="259" width="130.5" height="130.5" fill="#599609" stroke="white" stroke-width="8"></rect>
      <path d="M261.504 -9.01758H527.515V261.5H394L261.504 135V-9.01758Z" fill="#599609" stroke="white" stroke-width="8"></path>
      <path d="M126.426 261H395.582V395.578V530.156H261.004V395.578H126.426V261Z" fill="#72AE23" stroke="white" stroke-width="8"></path>
      <path d="M261.008 130.5L395.586 261H261.008V130.5Z" fill="#5EA4E4" stroke="white" stroke-width="8" stroke-linejoin="bevel"></path>
      <path d="M306.59 532.023L-4.50842 523.288V392.255L306.59 392.255V532.023Z" fill="#4C7E0B" stroke="white" stroke-width="8"></path>
      <path d="M126.426 391.499L-8.15233 391.499V260.999H126.426V391.499Z" fill="#72AE23" stroke="white" stroke-width="6"></path>
      <path d="M395.58 530.155L526.08 391.499H395.58V530.155Z" fill="#599609" stroke="white" stroke-width="6"></path>
      <path d="M-6.11523 261L-6.11525 -8.15622L126.424 -8.15622L261.002 -8.15623L261.002 134.578L128.463 134.578L126.424 261L-6.11523 261Z" fill="#72AE23" stroke="white" stroke-width="8"></path>
      <path d="M261 -1.14087e-05C405.146 -1.77095e-05 522 116.854 522 261C522 405.146 405.146 522 261 522C116.854 522 -5.10784e-06 405.146 -1.14087e-05 261C-1.77095e-05 116.854 116.854 -5.10784e-06 261 -1.14087e-05ZM261 476.73C380.144 476.73 476.73 380.144 476.73 261C476.73 141.855 380.144 45.2698 261 45.2698C141.855 45.2698 45.2698 141.856 45.2698 261C45.2698 380.144 141.856 476.73 261 476.73Z" fill="#1B5471"></path>
      <g style="mix-blend-mode:overlay">
        <circle cx="511" cy="466" r="323" fill="white" fill-opacity="0.4"></circle>
      </g>
    </g>
  </g>
  <path d="M416.106 471L384.664 377.032H410.954L430.139 440.98L426.231 440.447L447.369 390.532H462.29L484.317 440.625L480.053 440.98L499.238 377.032H525.527L493.553 471H475.257L453.053 417.532L455.895 417.888L434.224 471H416.106ZM535.518 471V339.552H560.386V396.217L555.413 398.348C556.715 394.085 559.025 390.236 562.34 386.802C565.775 383.249 569.86 380.407 574.597 378.276C579.334 376.144 584.308 375.078 589.518 375.078C596.624 375.078 602.545 376.499 607.282 379.341C612.137 382.184 615.749 386.506 618.117 392.309C620.604 397.993 621.848 405.039 621.848 413.447V471H596.624V415.401C596.624 411.138 596.032 407.585 594.847 404.743C593.663 401.901 591.828 399.828 589.341 398.526C586.972 397.105 584.012 396.513 580.459 396.749C577.617 396.749 574.952 397.223 572.466 398.17C570.097 398.999 568.025 400.243 566.248 401.901C564.59 403.559 563.229 405.453 562.163 407.585C561.215 409.717 560.742 412.026 560.742 414.513V471H548.307C545.584 471 543.156 471 541.025 471C538.893 471 537.057 471 535.518 471ZM642.821 471V377.032H668.045V471H642.821ZM655.255 357.67C650.4 357.67 646.61 356.486 643.886 354.118C641.163 351.749 639.801 348.374 639.801 343.992C639.801 339.966 641.163 336.709 643.886 334.223C646.729 331.617 650.518 330.315 655.255 330.315C660.11 330.315 663.9 331.558 666.623 334.045C669.347 336.413 670.709 339.729 670.709 343.992C670.709 348.137 669.288 351.453 666.446 353.94C663.722 356.427 659.992 357.67 655.255 357.67ZM715.946 472.776C707.183 472.776 699.367 471.355 692.498 468.513C685.748 465.553 680.301 461.526 676.156 456.434L691.788 442.934C695.459 446.842 699.544 449.684 704.044 451.46C708.544 453.118 713.044 453.947 717.544 453.947C719.321 453.947 720.92 453.77 722.341 453.414C723.88 452.941 725.183 452.349 726.248 451.638C727.314 450.809 728.084 449.862 728.558 448.796C729.15 447.612 729.446 446.368 729.446 445.066C729.446 442.46 728.38 440.388 726.248 438.848C725.064 438.256 723.229 437.546 720.742 436.717C718.255 435.769 715.058 434.763 711.15 433.697C705.11 432.158 699.959 430.381 695.696 428.368C691.551 426.236 688.235 423.868 685.748 421.263C683.617 418.776 681.959 416.111 680.774 413.269C679.709 410.309 679.176 407.052 679.176 403.499C679.176 399.236 680.123 395.388 682.018 391.953C683.913 388.401 686.518 385.381 689.834 382.894C693.268 380.407 697.176 378.512 701.558 377.21C705.939 375.789 710.558 375.078 715.413 375.078C720.268 375.078 725.005 375.67 729.624 376.855C734.242 378.039 738.505 379.756 742.413 382.006C746.439 384.137 749.933 386.684 752.893 389.644L739.393 404.565C737.262 402.552 734.834 400.717 732.11 399.059C729.505 397.401 726.781 396.098 723.939 395.151C721.097 394.203 718.551 393.73 716.301 393.73C714.288 393.73 712.452 393.907 710.794 394.263C709.255 394.618 707.952 395.151 706.887 395.861C705.821 396.572 704.992 397.519 704.4 398.703C703.926 399.769 703.689 400.953 703.689 402.256C703.689 403.559 703.985 404.802 704.577 405.986C705.288 407.171 706.235 408.177 707.419 409.006C708.722 409.717 710.617 410.546 713.104 411.493C715.709 412.44 719.202 413.506 723.584 414.69C729.268 416.23 734.064 417.947 737.972 419.842C741.999 421.736 745.196 423.927 747.564 426.414C749.578 428.546 751.058 430.973 752.005 433.697C752.953 436.421 753.426 439.441 753.426 442.756C753.426 448.559 751.768 453.77 748.453 458.388C745.255 462.888 740.814 466.441 735.13 469.046C729.446 471.533 723.051 472.776 715.946 472.776ZM760.751 510.079V377.032H785.087L785.797 398.17L781.179 396.572C782.008 392.782 784.021 389.289 787.218 386.091C790.534 382.894 794.62 380.289 799.475 378.276C804.33 376.262 809.422 375.256 814.751 375.256C822.922 375.256 830.146 377.387 836.423 381.651C842.817 385.795 847.85 391.539 851.521 398.881C855.311 406.105 857.206 414.454 857.206 423.927C857.206 433.283 855.37 441.631 851.699 448.974C848.028 456.316 842.995 462.118 836.6 466.382C830.205 470.526 822.922 472.599 814.751 472.599C809.304 472.599 804.093 471.592 799.12 469.579C794.264 467.447 790.12 464.664 786.685 461.23C783.251 457.796 781.119 454.125 780.291 450.217L786.152 447.73V510.079H760.751ZM809.067 450.927C813.686 450.927 817.771 449.802 821.324 447.552C824.876 445.302 827.659 442.164 829.673 438.138C831.686 433.993 832.692 429.256 832.692 423.927C832.692 418.598 831.686 413.921 829.673 409.894C827.659 405.868 824.876 402.73 821.324 400.48C817.89 398.23 813.804 397.105 809.067 397.105C804.33 397.105 800.185 398.23 796.633 400.48C793.08 402.611 790.297 405.749 788.284 409.894C786.271 413.921 785.264 418.598 785.264 423.927C785.264 429.256 786.271 433.993 788.284 438.138C790.297 442.164 793.08 445.302 796.633 447.552C800.185 449.802 804.33 450.927 809.067 450.927Z" fill="white"></path>
  <path d="M414.28 556.9C409.84 556.9 405.73 556.12 401.95 554.56C398.23 552.94 394.96 550.69 392.14 547.81C389.38 544.93 387.22 541.54 385.66 537.64C384.16 533.68 383.41 529.36 383.41 524.68C383.41 520 384.16 515.71 385.66 511.81C387.22 507.85 389.38 504.43 392.14 501.55C394.96 498.61 398.23 496.36 401.95 494.8C405.73 493.18 409.84 492.37 414.28 492.37C418.78 492.37 422.89 493.18 426.61 494.8C430.39 496.36 433.66 498.61 436.42 501.55C439.24 504.43 441.4 507.85 442.9 511.81C444.46 515.71 445.24 520 445.24 524.68C445.24 529.3 444.46 533.59 442.9 537.55C441.4 541.45 439.24 544.87 436.42 547.81C433.66 550.69 430.39 552.94 426.61 554.56C422.89 556.12 418.78 556.9 414.28 556.9ZM414.28 549.97C417.7 549.97 420.85 549.37 423.73 548.17C426.67 546.91 429.19 545.14 431.29 542.86C433.39 540.58 435.01 537.91 436.15 534.85C437.35 531.73 437.95 528.34 437.95 524.68C437.95 520.96 437.35 517.57 436.15 514.51C435.01 511.39 433.39 508.69 431.29 506.41C429.19 504.13 426.67 502.36 423.73 501.1C420.85 499.84 417.7 499.21 414.28 499.21C410.86 499.21 407.68 499.84 404.74 501.1C401.86 502.36 399.37 504.13 397.27 506.41C395.17 508.69 393.55 511.39 392.41 514.51C391.27 517.57 390.7 520.96 390.7 524.68C390.7 528.34 391.27 531.73 392.41 534.85C393.55 537.91 395.17 540.58 397.27 542.86C399.37 545.14 401.86 546.91 404.74 548.17C407.68 549.37 410.86 549.97 414.28 549.97ZM449.034 575.8V509.02H455.784L455.964 520.45L454.704 520.63C455.244 518.35 456.414 516.28 458.214 514.42C460.014 512.5 462.204 510.97 464.784 509.83C467.364 508.69 470.094 508.12 472.974 508.12C477.174 508.12 480.924 509.17 484.224 511.27C487.584 513.37 490.254 516.25 492.234 519.91C494.214 523.57 495.204 527.77 495.204 532.51C495.204 537.19 494.244 541.36 492.324 545.02C490.404 548.68 487.764 551.59 484.404 553.75C481.044 555.85 477.264 556.9 473.064 556.9C470.124 556.9 467.334 556.3 464.694 555.1C462.054 553.9 459.804 552.34 457.944 550.42C456.084 548.44 454.854 546.31 454.254 544.03H455.874V575.8H449.034ZM471.984 550.42C475.164 550.42 477.984 549.64 480.444 548.08C482.904 546.52 484.854 544.39 486.294 541.69C487.734 538.99 488.454 535.93 488.454 532.51C488.454 529.03 487.734 525.94 486.294 523.24C484.854 520.54 482.904 518.41 480.444 516.85C477.984 515.29 475.164 514.51 471.984 514.51C468.804 514.51 465.954 515.29 463.434 516.85C460.974 518.35 459.024 520.45 457.584 523.15C456.144 525.85 455.424 528.94 455.424 532.42C455.424 535.9 456.144 538.99 457.584 541.69C459.024 544.39 460.974 546.52 463.434 548.08C465.954 549.64 468.804 550.42 471.984 550.42ZM521.22 556.9C516.54 556.9 512.37 555.88 508.71 553.84C505.11 551.8 502.29 548.95 500.25 545.29C498.21 541.63 497.19 537.43 497.19 532.69C497.19 529.03 497.76 525.73 498.9 522.79C500.04 519.79 501.63 517.18 503.67 514.96C505.77 512.74 508.26 511.03 511.14 509.83C514.02 508.57 517.14 507.94 520.5 507.94C523.68 507.94 526.56 508.51 529.14 509.65C531.78 510.79 534.03 512.38 535.89 514.42C537.81 516.4 539.25 518.77 540.21 521.53C541.17 524.29 541.59 527.32 541.47 530.62L541.38 533.77H502.23L501.24 528.1H536.25L534.63 529.63V527.47C534.51 525.31 533.88 523.24 532.74 521.26C531.6 519.22 529.98 517.57 527.88 516.31C525.84 515.05 523.38 514.42 520.5 514.42C517.14 514.42 514.23 515.11 511.77 516.49C509.31 517.81 507.42 519.79 506.1 522.43C504.78 525.07 504.12 528.34 504.12 532.24C504.12 535.96 504.84 539.2 506.28 541.96C507.72 544.66 509.76 546.76 512.4 548.26C515.1 549.76 518.34 550.51 522.12 550.51C524.34 550.51 526.53 550.15 528.69 549.43C530.91 548.65 533.34 547.15 535.98 544.93L539.49 549.79C538.11 551.17 536.46 552.4 534.54 553.48C532.62 554.5 530.52 555.34 528.24 556C525.96 556.6 523.62 556.9 521.22 556.9ZM545.657 556V509.02H552.317L552.587 518.83L551.507 519.28C552.107 517.24 553.277 515.38 555.017 513.7C556.757 512.02 558.827 510.67 561.227 509.65C563.687 508.57 566.207 508.03 568.787 508.03C572.267 508.03 575.177 508.72 577.517 510.1C579.857 511.48 581.627 513.61 582.827 516.49C584.027 519.37 584.627 523.03 584.627 527.47V556H577.787V527.83C577.787 524.71 577.367 522.16 576.527 520.18C575.747 518.14 574.517 516.64 572.837 515.68C571.157 514.72 569.087 514.27 566.627 514.33C564.587 514.33 562.697 514.69 560.957 515.41C559.217 516.07 557.717 517 556.457 518.2C555.197 519.4 554.207 520.78 553.487 522.34C552.767 523.9 552.407 525.58 552.407 527.38V556H549.077C548.657 556 548.177 556 547.637 556C547.097 556 546.437 556 545.657 556ZM591.213 556V493H598.233V556H591.213ZM594.723 527.92V520.99H626.583V527.92H594.723ZM594.723 499.84V493H630.813V499.84H594.723ZM653.234 556.9C648.554 556.9 644.384 555.85 640.724 553.75C637.124 551.65 634.274 548.74 632.174 545.02C630.134 541.3 629.114 537.07 629.114 532.33C629.114 527.65 630.134 523.48 632.174 519.82C634.274 516.16 637.124 513.28 640.724 511.18C644.384 509.08 648.554 508.03 653.234 508.03C657.854 508.03 661.964 509.08 665.564 511.18C669.224 513.28 672.074 516.16 674.114 519.82C676.214 523.48 677.264 527.65 677.264 532.33C677.264 537.07 676.214 541.3 674.114 545.02C672.074 548.74 669.224 551.65 665.564 553.75C661.964 555.85 657.854 556.9 653.234 556.9ZM653.234 550.51C656.534 550.51 659.474 549.73 662.054 548.17C664.634 546.55 666.644 544.39 668.084 541.69C669.524 538.93 670.244 535.81 670.244 532.33C670.244 528.85 669.524 525.76 668.084 523.06C666.644 520.36 664.634 518.26 662.054 516.76C659.474 515.2 656.534 514.42 653.234 514.42C649.934 514.42 646.964 515.2 644.324 516.76C641.744 518.26 639.704 520.39 638.204 523.15C636.764 525.85 636.074 528.91 636.134 532.33C636.074 535.81 636.764 538.93 638.204 541.69C639.704 544.39 641.744 546.55 644.324 548.17C646.964 549.73 649.934 550.51 653.234 550.51ZM679.012 556V509.02H685.762L685.942 521.53L685.222 519.82C685.882 517.72 686.932 515.77 688.372 513.97C689.872 512.17 691.642 510.73 693.682 509.65C695.722 508.57 697.972 508.03 700.432 508.03C701.452 508.03 702.412 508.12 703.312 508.3C704.212 508.42 704.962 508.6 705.562 508.84L703.672 516.4C702.892 516.04 702.082 515.8 701.242 515.68C700.462 515.5 699.712 515.41 698.992 515.41C696.952 515.41 695.122 515.77 693.502 516.49C691.882 517.21 690.502 518.23 689.362 519.55C688.222 520.81 687.352 522.28 686.752 523.96C686.152 525.64 685.852 527.44 685.852 529.36V556H679.012ZM708.086 556V509.02H714.836V556H708.086ZM711.416 498.85C709.736 498.85 708.446 498.43 707.546 497.59C706.706 496.69 706.286 495.49 706.286 493.99C706.286 492.49 706.736 491.29 707.636 490.39C708.536 489.49 709.796 489.04 711.416 489.04C713.036 489.04 714.296 489.49 715.196 490.39C716.096 491.23 716.546 492.43 716.546 493.99C716.546 495.43 716.096 496.6 715.196 497.5C714.296 498.4 713.036 498.85 711.416 498.85ZM736.867 556.9C732.847 556.9 729.247 556.15 726.067 554.65C722.887 553.15 720.367 551.17 718.507 548.71L723.277 544.57C725.017 546.67 727.057 548.26 729.397 549.34C731.797 550.42 734.467 550.96 737.407 550.96C738.907 550.96 740.257 550.81 741.457 550.51C742.657 550.15 743.707 549.64 744.607 548.98C745.507 548.32 746.197 547.54 746.677 546.64C747.157 545.74 747.397 544.75 747.397 543.67C747.397 541.69 746.527 540.04 744.787 538.72C744.007 538.18 742.897 537.64 741.457 537.1C740.017 536.5 738.277 535.93 736.237 535.39C732.877 534.43 730.087 533.47 727.867 532.51C725.647 531.49 723.907 530.32 722.647 529C721.747 527.92 721.057 526.75 720.577 525.49C720.157 524.23 719.947 522.85 719.947 521.35C719.947 519.43 720.337 517.66 721.117 516.04C721.957 514.42 723.097 513.01 724.537 511.81C726.037 510.55 727.777 509.62 729.757 509.02C731.797 508.36 733.987 508.03 736.327 508.03C738.547 508.03 740.737 508.33 742.897 508.93C745.057 509.53 747.067 510.4 748.927 511.54C750.787 512.68 752.377 514.03 753.697 515.59L749.557 520.09C748.417 518.89 747.157 517.81 745.777 516.85C744.397 515.89 742.927 515.14 741.367 514.6C739.867 514.06 738.307 513.79 736.687 513.79C735.247 513.79 733.897 513.97 732.637 514.33C731.437 514.69 730.387 515.2 729.487 515.86C728.647 516.46 727.987 517.21 727.507 518.11C727.087 519.01 726.877 520 726.877 521.08C726.877 521.98 727.057 522.79 727.417 523.51C727.777 524.23 728.287 524.86 728.947 525.4C729.787 526.06 730.957 526.69 732.457 527.29C734.017 527.83 735.937 528.4 738.217 529C740.857 529.72 743.077 530.47 744.877 531.25C746.737 531.97 748.267 532.84 749.467 533.86C751.087 535.06 752.227 536.44 752.887 538C753.607 539.56 753.967 541.33 753.967 543.31C753.967 545.95 753.217 548.29 751.717 550.33C750.277 552.37 748.267 553.99 745.687 555.19C743.107 556.33 740.167 556.9 736.867 556.9Z" fill="white"></path>
</svg>